<svg width="512" height="512" viewBox="0 0 512 512" fill="none" xmlns="http://www.w3.org/2000/svg">
<circle cx="256" cy="256" r="256" fill="black"/>
<path d="M256 396L312 340L396 396L340 312L396 249.333L340 196L396 116L312 169.333L256 116L200 169.333L116 116L172 196L116 249.333L172 312L116 396L200 340L256 396Z" stroke="#F3F3F3" stroke-width="10"/>
<path d="M186 242H214V270H186V242Z" fill="#19BB42"/>
<path d="M298 242H326V270H298V242Z" fill="#4085F3"/>
<path d="M270 298H298V326H270V298Z" fill="#9045E5"/>
<path d="M214 298H242V326H214V298Z" fill="#FEFEFE"/>
<path d="M214 186H242V214H214V186Z" fill="#F52801"/>
<path d="M270 186H298V214H270V186Z" fill="#FFC902"/>
</svg>
